<svg viewBox="0 0 62 41" fill="none" xmlns="http://www.w3.org/2000/svg">
    <path d="M15.5 5.125H6.2C5.34396 5.125 4.65 5.88985 4.65 6.83333V34.1667C4.65 35.1102 5.34396 35.875 6.2 35.875H15.5C16.356 35.875 17.05 35.1102 17.05 34.1667V6.83333C17.05 5.88985 16.356 5.125 15.5 5.125Z" stroke="#FAFAFA" stroke-width="2" stroke-linecap="round" stroke-linejoin="round"/>
    <path d="M10.85 5.125V35.875" stroke="#FAFAFA" stroke-width="2" stroke-linecap="round" stroke-linejoin="round"/>
    <path d="M31.62 32.2875C31.93 33.1417 31.465 34.1667 30.69 34.5083L27.745 35.7042C26.97 36.0458 26.04 35.5333 25.73 34.6792L17.205 8.7125C16.895 7.85833 17.36 6.83333 18.135 6.49167L21.08 5.29583C21.855 4.95417 22.785 5.46667 23.095 6.32083L31.62 32.2875Z" stroke="#FAFAFA" stroke-width="2" stroke-linecap="round" stroke-linejoin="round"/>
    <path d="M46.5 5.125H55.8C56.656 5.125 57.35 5.88985 57.35 6.83333V34.1667C57.35 35.1102 56.656 35.875 55.8 35.875H46.5C45.644 35.875 44.95 35.1102 44.95 34.1667V6.83333C44.95 5.88985 45.644 5.125 46.5 5.125Z" stroke="#FAFAFA" stroke-width="2" stroke-linecap="round" stroke-linejoin="round"/>
    <path d="M51.15 5.125V35.875" stroke="#FAFAFA" stroke-width="2" stroke-linecap="round" stroke-linejoin="round"/>
    <path d="M30.38 32.2875C30.07 33.1417 30.535 34.1667 31.31 34.5083L34.255 35.7042C35.03 36.0458 35.96 35.5333 36.27 34.6792L44.795 8.7125C45.105 7.85833 44.64 6.83333 43.865 6.49167L40.92 5.29583C40.145 4.95417 39.215 5.46667 38.905 6.32083L30.38 32.2875Z" stroke="#FAFAFA" stroke-width="2" stroke-linecap="round" stroke-linejoin="round"/>
</svg>