<svg viewBox="0 0 159 46" fill="none" xmlns="http://www.w3.org/2000/svg">
<path d="M82.58 25.92C82.58 26.48 82.545 27.0633 82.475 27.67H68.93C69.0233 28.8833 69.4083 29.8167 70.085 30.47C70.785 31.1 71.6367 31.415 72.64 31.415C74.1333 31.415 75.1717 30.785 75.755 29.525H82.125C81.7983 30.8083 81.2033 31.9633 80.34 32.99C79.5 34.0167 78.4383 34.8217 77.155 35.405C75.8717 35.9883 74.4367 36.28 72.85 36.28C70.9367 36.28 69.2333 35.8717 67.74 35.055C66.2467 34.2383 65.08 33.0717 64.24 31.555C63.4 30.0383 62.98 28.265 62.98 26.235C62.98 24.205 63.3883 22.4317 64.205 20.915C65.045 19.3983 66.2117 18.2317 67.705 17.415C69.1983 16.5983 70.9133 16.19 72.85 16.19C74.74 16.19 76.42 16.5867 77.89 17.38C79.36 18.1733 80.5033 19.305 81.32 20.775C82.16 22.245 82.58 23.96 82.58 25.92ZM76.455 24.345C76.455 23.3183 76.105 22.5017 75.405 21.895C74.705 21.2883 73.83 20.985 72.78 20.985C71.7767 20.985 70.925 21.2767 70.225 21.86C69.5483 22.4433 69.1283 23.2717 68.965 24.345H76.455ZM97.6374 16.26C99.924 16.26 101.744 17.0067 103.097 18.5C104.474 19.97 105.162 22 105.162 24.59V36H99.2124V25.395C99.2124 24.0883 98.8741 23.0733 98.1974 22.35C97.5207 21.6267 96.6107 21.265 95.4674 21.265C94.324 21.265 93.414 21.6267 92.7374 22.35C92.0607 23.0733 91.7224 24.0883 91.7224 25.395V36H85.7374V16.47H91.7224V19.06C92.329 18.1967 93.1457 17.52 94.1724 17.03C95.199 16.5167 96.354 16.26 97.6374 16.26ZM120.206 30.925V36H117.161C114.991 36 113.3 35.475 112.086 34.425C110.873 33.3517 110.266 31.6133 110.266 29.21V21.44H107.886V16.47H110.266V11.71H116.251V16.47H120.171V21.44H116.251V29.28C116.251 29.8633 116.391 30.2833 116.671 30.54C116.951 30.7967 117.418 30.925 118.071 30.925H120.206ZM129.525 19.725C130.225 18.6517 131.1 17.8117 132.15 17.205C133.2 16.575 134.367 16.26 135.65 16.26V22.595H134.005C132.512 22.595 131.392 22.9217 130.645 23.575C129.898 24.205 129.525 25.325 129.525 26.935V36H123.54V16.47H129.525V19.725ZM158.461 16.47L146.211 45.275H139.771L144.251 35.335L136.306 16.47H142.991L147.506 28.685L151.986 16.47H158.461Z" fill="#090909"/>
<path d="M15.5 5.125H6.19999C5.34395 5.125 4.64999 5.88985 4.64999 6.83333V34.1667C4.64999 35.1102 5.34395 35.875 6.19999 35.875H15.5C16.356 35.875 17.05 35.1102 17.05 34.1667V6.83333C17.05 5.88985 16.356 5.125 15.5 5.125Z" stroke="#111111" stroke-width="2" stroke-linecap="round" stroke-linejoin="round"/>
<path d="M10.85 5.125V35.875" stroke="#111111" stroke-width="2" stroke-linecap="round" stroke-linejoin="round"/>
<path d="M31.62 32.2875C31.93 33.1417 31.465 34.1667 30.69 34.5084L27.745 35.7042C26.97 36.0459 26.04 35.5334 25.73 34.6792L17.205 8.71253C16.895 7.85836 17.36 6.83336 18.135 6.4917L21.08 5.29586C21.855 4.9542 22.785 5.4667 23.095 6.32086L31.62 32.2875Z" stroke="#111111" stroke-width="2" stroke-linecap="round" stroke-linejoin="round"/>
<path d="M46.5 5.125H55.8C56.656 5.125 57.35 5.88985 57.35 6.83333V34.1667C57.35 35.1102 56.656 35.875 55.8 35.875H46.5C45.644 35.875 44.95 35.1102 44.95 34.1667V6.83333C44.95 5.88985 45.644 5.125 46.5 5.125Z" stroke="#111111" stroke-width="2" stroke-linecap="round" stroke-linejoin="round"/>
<path d="M51.15 5.125V35.875" stroke="#111111" stroke-width="2" stroke-linecap="round" stroke-linejoin="round"/>
<path d="M30.38 32.2875C30.07 33.1417 30.535 34.1667 31.31 34.5084L34.255 35.7042C35.03 36.0459 35.96 35.5334 36.27 34.6792L44.795 8.71253C45.105 7.85836 44.64 6.83336 43.865 6.4917L40.92 5.29586C40.145 4.9542 39.215 5.4667 38.905 6.32086L30.38 32.2875Z" stroke="#111111" stroke-width="2" stroke-linecap="round" stroke-linejoin="round"/>
</svg>
